<svg width="50" height="40" viewBox="0 0 50 40" fill="none" xmlns="http://www.w3.org/2000/svg">
<path d="M49.1196 29.074C48.8721 30.0426 48.5176 30.9463 47.7641 31.6578C47.1163 32.2683 46.358 32.642 45.476 32.8355V38.5606C45.7379 38.5606 45.9879 38.5497 46.2367 38.563C46.6873 38.5858 47.007 38.8766 46.9901 39.2672C46.9709 39.6986 46.7077 39.9293 46.2919 39.9858C46.1501 40.005 46.0047 39.9978 45.8605 39.9978C31.6608 39.9978 17.461 39.9978 3.26128 39.9954C3.04016 39.9954 2.76136 40.0291 2.61114 39.9137C2.39843 39.7503 2.17611 39.4763 2.14607 39.2263C2.10401 38.8922 2.35397 38.6218 2.7229 38.581C3.00531 38.5497 3.29373 38.575 3.6206 38.575V32.8715C3.26008 32.7369 2.86471 32.618 2.49457 32.4461C0.29539 31.4246 -0.633554 28.7183 0.458827 26.5516C0.725613 26.0216 1.11738 25.8305 1.52357 26.0324C1.90933 26.2235 1.99345 26.6249 1.76031 27.1537C1.05249 28.7544 1.60769 30.4212 3.09664 31.153C3.25047 31.2287 3.41991 31.2744 3.66386 31.3633C3.66386 30.849 3.65786 30.3935 3.66627 29.9393C3.67348 29.5836 3.78043 29.2759 4.15057 29.1329C4.59521 28.9611 5.06028 29.2663 5.08913 29.7819C5.11677 30.2854 5.09513 30.7913 5.09513 31.3057C6.40383 31.1074 7.45054 29.7001 7.33638 28.3758C7.17534 26.4975 5.68759 25.327 3.82129 25.6094C3.74198 25.6214 3.66266 25.6311 3.58335 25.6359C3.12789 25.6659 2.82986 25.4664 2.76016 25.0879C2.68445 24.6769 2.88874 24.3512 3.3454 24.243C4.66491 23.9306 5.89669 24.1673 6.97706 24.9773C8.42756 26.0625 9.02362 27.561 8.68954 29.3192C8.34824 31.1206 7.21019 32.2803 5.4184 32.7622C5.32707 32.7874 5.23814 32.8235 5.13119 32.8595V38.5293H9.61968C9.61968 38.3154 9.61968 38.1147 9.61968 37.914C9.61968 31.2624 9.61968 24.6096 9.62208 17.9579C9.62208 17.7356 9.6305 17.5097 9.66895 17.291C9.73385 16.9208 10.0006 16.7334 10.3491 16.7358C10.7193 16.7394 10.9873 16.9413 11.0365 17.3379C11.0618 17.5433 11.0606 17.7525 11.0606 17.9604C11.0606 24.5964 11.0606 31.2324 11.0606 37.8696V38.5221H12.5699C12.8043 37.7266 12.1638 36.5717 13.4917 36.258C13.6852 35.4312 13.0939 34.3064 14.4903 33.9651C14.4903 33.8041 14.4903 33.6334 14.4903 33.4628C14.4903 30.5846 14.4903 27.7065 14.4903 24.8283C14.4903 23.6806 14.8605 23.3129 16.0129 23.3129C17.6605 23.3129 19.3069 23.3105 20.9545 23.3129C21.9099 23.3153 22.3305 23.7275 22.3317 24.6841C22.3365 27.6259 22.3353 30.569 22.3317 33.5108C22.3317 33.7957 22.3293 34.0024 22.7042 34.0985C23.1404 34.2103 23.2834 34.6177 23.2955 35.0455C23.3063 35.4432 23.2979 35.8422 23.2979 36.2484C24.6378 36.5801 24.0345 37.6941 24.2472 38.5209H38.0132V5.09934C37.8173 5.09934 37.6322 5.09934 37.4471 5.09934C31.5466 5.09934 25.6461 5.09934 19.7455 5.09934C18.9956 5.09934 18.6556 4.88183 18.6471 4.39873C18.6375 3.90361 19.0053 3.65966 19.7696 3.65966C26.2782 3.65966 32.7856 3.65966 39.2942 3.65966C39.4805 3.65966 39.6668 3.65966 39.8759 3.65966V1.4749H9.24955V3.65966H9.74827C11.8585 3.65966 13.97 3.65846 16.0802 3.66207C16.2701 3.66207 16.466 3.66687 16.6499 3.71254C17.0284 3.80627 17.2099 4.06945 17.1738 4.45762C17.1402 4.82415 16.9178 5.03565 16.5585 5.08252C16.3542 5.10896 16.1439 5.09814 15.936 5.09814C14.3377 5.09814 12.7394 5.09814 11.0606 5.09814V5.68099C11.0606 8.41494 11.0389 11.1501 11.0702 13.8841C11.0846 15.0762 10.8022 15.23 10.3539 15.254C9.80355 15.2841 9.61968 14.9151 9.61968 13.8528C9.61968 11.1501 9.61968 8.44739 9.61968 5.74588V5.09814C9.32045 5.09814 9.05607 5.10535 8.79168 5.09694C8.15716 5.07651 7.79184 4.75204 7.77862 4.12714C7.75578 3.07201 7.75578 2.01568 7.77982 0.961759C7.79424 0.363293 8.16317 0.03642 8.76284 0.0039731C8.89023 -0.00323734 9.01881 0.00156962 9.1462 0.00156962C19.4126 0.00156962 29.6779 0.00156962 39.9444 0.00156962C41.0824 0.00156962 41.3372 0.252733 41.3372 1.37516C41.3372 2.20676 41.3384 3.03836 41.3372 3.86997C41.3348 4.79771 41.0331 5.09574 40.097 5.10055C39.9227 5.10055 39.7497 5.10055 39.5334 5.10055V38.5233H43.9798C43.9882 38.3791 44.0062 38.2265 44.0062 38.0739C44.0086 36.4743 43.9966 34.876 44.0158 33.2765C44.0195 32.9424 43.9173 32.809 43.5952 32.7237C40.8925 32.0147 39.5406 28.9947 40.8024 26.5167C41.0536 26.024 41.4465 25.8377 41.8419 26.024C42.2373 26.2103 42.3298 26.6189 42.0955 27.1452C41.384 28.7484 41.9284 30.4044 43.4186 31.147C43.5832 31.2288 43.7659 31.2732 44.0074 31.3597C44.0074 30.8298 43.999 30.3707 44.0098 29.9116C44.0219 29.4153 44.2886 29.1005 44.69 29.0824C45.1094 29.0632 45.4099 29.3841 45.4411 29.9008C45.4555 30.14 45.4447 30.3803 45.4459 30.6207C45.4459 30.8418 45.4459 31.0629 45.4459 31.2888C46.7053 31.1566 47.7629 29.7242 47.6667 28.3338C47.5429 26.5564 45.9759 25.3186 44.2033 25.5974C44.0928 25.6142 43.981 25.625 43.8704 25.6347C43.457 25.6707 43.1914 25.4772 43.0893 25.0855C42.9956 24.7237 43.2215 24.3668 43.6325 24.2527C44.6275 23.9751 45.6105 24.0808 46.5299 24.5134C47.9383 25.1768 48.7964 26.2896 49.0475 27.8447C49.0571 27.9047 49.0944 27.9612 49.1184 28.0189V29.074H49.1196ZM15.9673 24.7718V33.9471H20.8535V24.7718H15.9673ZM22.7282 37.753H14.0865V38.5269H22.7294V37.753H22.7282ZM14.9927 35.4601V36.2412H21.8221V35.4601H14.9927Z" fill="black"/>
<path d="M14.8173 13.861C14.8173 12.7867 14.8149 11.734 14.8173 10.6812C14.8209 9.59367 15.203 9.21272 16.287 9.21152C17.836 9.21152 19.3863 9.20911 20.9353 9.21152C21.9147 9.21392 22.3281 9.62732 22.3317 10.6139C22.3365 11.5886 22.3197 12.5632 22.345 13.5366C22.3498 13.7192 22.5048 13.8983 22.5937 14.0786C22.7295 14.355 22.9482 14.6193 22.9855 14.9078C23.0504 15.4101 23.0215 15.928 22.9987 16.4388C22.9687 17.0877 22.6189 17.4398 21.9604 17.4434C19.5966 17.4566 17.2328 17.4566 14.8689 17.4434C14.1912 17.4398 13.8451 17.0721 13.8222 16.3967C13.8078 15.9821 13.8174 15.5663 13.8198 15.1505C13.8222 14.3465 13.9977 14.111 14.8173 13.8598V13.861ZM20.8704 10.6848H16.2882V13.8839H20.8704V10.6848ZM15.2775 15.9773H21.5386V15.3897H15.2775V15.9773Z" fill="black"/>
<path d="M27.1148 27.9567C27.1148 26.8667 27.1124 25.7971 27.1148 24.7288C27.1184 23.6941 27.5005 23.3131 28.5316 23.3119C30.0975 23.3107 31.6633 23.3095 33.2292 23.3119C34.2086 23.3131 34.6184 23.7265 34.622 24.7156C34.6256 25.6902 34.6088 26.6648 34.6352 27.6394C34.6401 27.8209 34.8023 27.9987 34.89 28.1778C35.0246 28.4542 35.2373 28.721 35.2758 29.0106C35.3407 29.4973 35.3058 29.9996 35.2914 30.4935C35.271 31.1701 34.9309 31.5342 34.2447 31.539C31.8797 31.5547 29.5158 31.5547 27.1508 31.539C26.4682 31.5342 26.1366 31.1701 26.1113 30.4851C26.0957 30.0705 26.1065 29.6547 26.1089 29.2389C26.1137 28.4386 26.2988 28.1922 27.1148 27.9591V27.9567ZM28.5809 27.9675H33.1523V24.7805H28.5809V27.9675ZM27.5666 30.0429H33.8625C33.8493 29.8133 33.8397 29.6451 33.8301 29.4841H27.5666V30.0429Z" fill="black"/>
<path d="M27.1144 13.8599C27.1144 12.7664 27.1108 11.6956 27.1144 10.6261C27.118 9.60098 27.511 9.21402 28.5385 9.21281C30.1043 9.21161 31.6702 9.21041 33.2361 9.21281C34.1891 9.21522 34.6145 9.63462 34.6205 10.5816C34.6265 11.5718 34.6085 12.5633 34.6337 13.5535C34.6385 13.7338 34.7959 13.9152 34.8945 14.0883C35.011 14.2914 35.2334 14.4788 35.2478 14.6843C35.2946 15.3345 35.3055 15.9942 35.2538 16.6432C35.2129 17.1539 34.8476 17.4399 34.2828 17.4435C31.9021 17.4567 29.5215 17.4579 27.1397 17.4435C26.4847 17.4399 26.1434 17.0806 26.111 16.4268C26.0905 16.0122 26.105 15.5964 26.1062 15.1806C26.1086 14.3418 26.278 14.1111 27.1132 13.8587L27.1144 13.8599ZM33.1435 13.8888V10.6849H28.5817V13.8888H33.1435ZM27.5783 15.9726H33.8225V15.3789H27.5663C27.5591 15.5123 27.5482 15.6205 27.5494 15.7286C27.5494 15.8043 27.5663 15.8813 27.5771 15.9714L27.5783 15.9726Z" fill="black"/>
<path d="M16.2955 29.5501C16.2991 28.9936 16.5647 28.6728 17.0177 28.6788C17.4636 28.6848 17.734 29.0201 17.734 29.5705C17.734 30.1101 17.4527 30.467 17.0213 30.4766C16.5671 30.4862 16.2907 30.1353 16.2955 29.5501Z" fill="black"/>
</svg>
