<svg width="32" height="26" viewBox="0 0 32 26" fill="none" xmlns="http://www.w3.org/2000/svg">
<path d="M31.9278 18.8981C31.7668 19.5277 31.5364 20.1151 31.0466 20.5776C30.6256 20.9744 30.1327 21.2173 29.5594 21.3431V25.0644C29.7297 25.0644 29.8921 25.0573 30.0538 25.0659C30.3468 25.0808 30.5545 25.2698 30.5436 25.5237C30.5311 25.8041 30.36 25.9541 30.0898 25.9908C29.9976 26.0033 29.9031 25.9986 29.8093 25.9986C20.5795 25.9986 11.3497 25.9986 2.11983 25.997C1.9761 25.997 1.79488 26.0189 1.69724 25.9439C1.55898 25.8377 1.41447 25.6596 1.39494 25.4971C1.3676 25.28 1.53008 25.1042 1.76989 25.0776C1.95345 25.0573 2.14092 25.0737 2.35339 25.0737V21.3665C2.11905 21.279 1.86206 21.2017 1.62147 21.09C0.192004 20.426 -0.41181 18.6669 0.298237 17.2585C0.471648 16.914 0.726297 16.7898 0.990319 16.9211C1.24106 17.0453 1.29574 17.3062 1.1442 17.6499C0.684116 18.6903 1.045 19.7738 2.01282 20.2495C2.1128 20.2987 2.22294 20.3284 2.38151 20.3862C2.38151 20.0518 2.37761 19.7558 2.38307 19.4605C2.38776 19.2293 2.45728 19.0293 2.69787 18.9364C2.98689 18.8247 3.28918 19.0231 3.30793 19.3582C3.3259 19.6855 3.31184 20.0144 3.31184 20.3487C4.16249 20.2198 4.84285 19.3051 4.76864 18.4443C4.66397 17.2234 3.69693 16.4626 2.48384 16.6461C2.43228 16.6539 2.38073 16.6602 2.32918 16.6633C2.03313 16.6828 1.83941 16.5532 1.7941 16.3071C1.74489 16.04 1.87768 15.8283 2.17451 15.758C3.03219 15.5549 3.83285 15.7088 4.53509 16.2352C5.47791 16.9406 5.86535 17.9147 5.6482 19.0575C5.42636 20.2284 4.68663 20.9822 3.52196 21.2954C3.4626 21.3118 3.40479 21.3352 3.33527 21.3587V25.0441H6.25279C6.25279 24.905 6.25279 24.7746 6.25279 24.6441C6.25279 20.3206 6.25279 15.9962 6.25435 11.6727C6.25435 11.5282 6.25982 11.3813 6.28482 11.2391C6.327 10.9986 6.50041 10.8767 6.72694 10.8783C6.96753 10.8806 7.14172 11.0118 7.17374 11.2696C7.19015 11.4032 7.18937 11.5391 7.18937 11.6742C7.18937 15.9876 7.18937 20.301 7.18937 24.6152V25.0394H8.17047C8.32279 24.5223 7.90645 23.7716 8.76959 23.5677C8.89536 23.0303 8.51104 22.2992 9.41871 22.0773C9.41871 21.9727 9.41871 21.8617 9.41871 21.7508C9.41871 19.88 9.41871 18.0092 9.41871 16.1384C9.41871 15.3924 9.6593 15.1534 10.4084 15.1534C11.4793 15.1534 12.5495 15.1518 13.6204 15.1534C14.2414 15.1549 14.5148 15.4229 14.5156 16.0447C14.5187 17.9569 14.5179 19.8698 14.5156 21.7821C14.5156 21.9672 14.514 22.1015 14.7577 22.164C15.0413 22.2367 15.1342 22.5015 15.1421 22.7796C15.1491 23.0381 15.1436 23.2974 15.1436 23.5615C16.0146 23.7771 15.6224 24.5012 15.7607 25.0386H24.7086V3.31457C24.5812 3.31457 24.4609 3.31457 24.3406 3.31457C20.5053 3.31457 16.6699 3.31457 12.8346 3.31457C12.3472 3.31457 12.1261 3.17319 12.1206 2.85918C12.1144 2.53735 12.3534 2.37878 12.8502 2.37878C17.0808 2.37878 21.3106 2.37878 25.5412 2.37878C25.6623 2.37878 25.7834 2.37878 25.9193 2.37878V0.958686H6.0122V2.37878H6.33637C7.70804 2.37878 9.08048 2.378 10.4521 2.38034C10.5756 2.38034 10.7029 2.38347 10.8224 2.41315C11.0685 2.47408 11.1864 2.64515 11.163 2.89745C11.1411 3.1357 10.9966 3.27317 10.763 3.30364C10.6302 3.32082 10.4935 3.31379 10.3584 3.31379C9.31951 3.31379 8.28061 3.31379 7.18937 3.31379V3.69264C7.18937 5.46971 7.17531 7.24756 7.19562 9.02464C7.20499 9.79952 7.02142 9.8995 6.73006 9.91512C6.37231 9.93465 6.25279 9.69485 6.25279 9.00433C6.25279 7.24756 6.25279 5.4908 6.25279 3.73482V3.31379C6.05829 3.31379 5.88644 3.31848 5.71459 3.31301C5.30216 3.29973 5.06469 3.08883 5.0561 2.68264C5.04126 1.99681 5.04126 1.31019 5.05688 0.625143C5.06626 0.23614 5.30606 0.023673 5.69585 0.00258251C5.77865 -0.00210427 5.86223 0.00102025 5.94503 0.00102025C12.6182 0.00102025 19.2906 0.00102025 25.9638 0.00102025C26.7036 0.00102025 26.8692 0.164276 26.8692 0.893852C26.8692 1.43439 26.8699 1.97494 26.8692 2.51548C26.8676 3.11851 26.6715 3.31223 26.063 3.31536C25.9498 3.31536 25.8373 3.31536 25.6967 3.31536V25.0401H28.5869C28.5923 24.9464 28.604 24.8472 28.604 24.748C28.6056 23.7083 28.5978 22.6694 28.6103 21.6297C28.6126 21.4126 28.5462 21.3259 28.3369 21.2704C26.5801 20.8095 25.7014 18.8466 26.5216 17.2359C26.6848 16.9156 26.9402 16.7945 27.1972 16.9156C27.4542 17.0367 27.5144 17.3023 27.3621 17.6444C26.8996 18.6864 27.2535 19.7628 28.2221 20.2456C28.3291 20.2987 28.4478 20.3276 28.6048 20.3838C28.6048 20.0394 28.5994 19.741 28.6064 19.4426C28.6142 19.12 28.7876 18.9153 29.0485 18.9036C29.3211 18.8911 29.5164 19.0997 29.5367 19.4355C29.5461 19.591 29.5391 19.7472 29.5398 19.9034C29.5398 20.0472 29.5398 20.1909 29.5398 20.3377C30.3585 20.2518 31.0459 19.3207 30.9834 18.4169C30.9029 17.2617 29.8843 16.4571 28.7322 16.6383C28.6603 16.6492 28.5876 16.6563 28.5158 16.6625C28.2471 16.686 28.0744 16.5602 28.008 16.3055C27.9471 16.0704 28.094 15.8384 28.3611 15.7642C29.0079 15.5838 29.6469 15.6525 30.2444 15.9337C31.1599 16.3649 31.7176 17.0882 31.8809 18.099C31.8871 18.1381 31.9114 18.1748 31.927 18.2123V18.8981H31.9278ZM10.3787 16.1017V22.0656H13.5548V16.1017H10.3787V16.1017ZM14.7734 24.5394H9.15625V25.0425H14.7741V24.5394H14.7734ZM9.74523 23.049V23.5568H14.1844V23.049H9.74523V23.049Z" fill="black"/>
<path d="M9.63132 9.0097C9.63132 8.31137 9.62976 7.6271 9.63132 6.94283C9.63366 6.23591 9.88206 5.98829 10.5866 5.98751C11.5935 5.98751 12.6012 5.98595 13.6081 5.98751C14.2447 5.98907 14.5134 6.25778 14.5157 6.89909C14.5189 7.53259 14.5079 8.16608 14.5243 8.7988C14.5274 8.91753 14.6282 9.03392 14.686 9.15109C14.7743 9.33075 14.9164 9.5026 14.9407 9.69007C14.9828 10.0166 14.9641 10.3532 14.9493 10.6852C14.9297 11.107 14.7024 11.3359 14.2744 11.3383C12.7379 11.3468 11.2014 11.3468 9.66491 11.3383C9.22435 11.3359 8.99938 11.0969 8.98454 10.6579C8.97517 10.3884 8.98142 10.1181 8.98298 9.84786C8.98454 9.32528 9.09859 9.17218 9.63132 9.00892V9.0097ZM13.5659 6.94518H10.5874V9.02454H13.5659V6.94518ZM9.93049 10.3853H14.0002V10.0033H9.93049V10.3853Z" fill="black"/>
<path d="M17.6244 18.1718C17.6244 17.4633 17.6229 16.7681 17.6244 16.0737C17.6268 15.4012 17.8752 15.1535 18.5454 15.1528C19.5632 15.152 20.581 15.1512 21.5988 15.1528C22.2354 15.1535 22.5018 15.4222 22.5041 16.0651C22.5065 16.6986 22.4956 17.3321 22.5127 17.9656C22.5159 18.0836 22.6213 18.1992 22.6783 18.3156C22.7658 18.4952 22.9041 18.6686 22.9291 18.8569C22.9713 19.1732 22.9486 19.4997 22.9392 19.8208C22.926 20.2606 22.7049 20.4972 22.2589 20.5004C20.7216 20.5105 19.1851 20.5105 17.6479 20.5004C17.2042 20.4972 16.9886 20.2606 16.9722 19.8153C16.962 19.5458 16.9691 19.2756 16.9706 19.0053C16.9737 18.4851 17.094 18.3249 17.6244 18.1734V18.1718ZM18.5774 18.1789H21.5488V16.1073H18.5774V18.1789V18.1789ZM17.9181 19.5279H22.0105C22.0019 19.3787 21.9956 19.2693 21.9894 19.1646H17.9181V19.5279Z" fill="black"/>
<path d="M17.6242 9.00884C17.6242 8.29801 17.6218 7.60202 17.6242 6.90682C17.6265 6.24051 17.8819 5.98899 18.5498 5.98821C19.5676 5.98743 20.5854 5.98664 21.6032 5.98821C22.2227 5.98977 22.4992 6.26238 22.5031 6.87791C22.507 7.52157 22.4953 8.166 22.5117 8.80965C22.5148 8.92682 22.6171 9.04477 22.6812 9.15725C22.757 9.28926 22.9015 9.41112 22.9108 9.54469C22.9413 9.96728 22.9483 10.3961 22.9147 10.8179C22.8882 11.1499 22.6507 11.3358 22.2836 11.3382C20.7362 11.3468 19.1888 11.3475 17.6406 11.3382C17.2148 11.3358 16.993 11.1023 16.9719 10.6773C16.9586 10.4078 16.968 10.1376 16.9688 9.8673C16.9703 9.32207 17.0805 9.17209 17.6234 9.00806L17.6242 9.00884ZM21.5431 9.02758V6.94509H18.5779V9.02758H21.5431ZM17.9257 10.3821H21.9844V9.99619H17.9179C17.9132 10.0829 17.9061 10.1532 17.9069 10.2235C17.9069 10.2727 17.9179 10.3227 17.9249 10.3813L17.9257 10.3821Z" fill="black"/>
<path d="M10.5918 19.2075C10.5942 18.8458 10.7668 18.6373 11.0613 18.6412C11.3511 18.6451 11.5268 18.863 11.5268 19.2208C11.5268 19.5715 11.3441 19.8035 11.0636 19.8097C10.7684 19.816 10.5887 19.5879 10.5918 19.2075V19.2075Z" fill="black"/>
</svg>
