<svg width="24" height="24" viewBox="0 0 24 24" fill="none" xmlns="http://www.w3.org/2000/svg">
<path d="M23.4565 9.1863C23.0433 9.2023 22.6288 9.18897 22.2149 9.19163C21.8806 9.19363 21.7528 9.33296 21.7503 9.69495C21.7485 9.92428 21.7503 10.1536 21.7503 10.3776H21.0297C21.0159 10.3569 21.0077 10.3509 21.0077 10.3443C21.0046 10.1196 21.004 9.89428 21.0002 9.66962C20.9952 9.34096 20.8625 9.1943 20.5582 9.1923C20.1049 9.18896 19.6522 9.18896 19.1989 9.1923C18.8902 9.1943 18.7556 9.33763 18.7512 9.66296C18.7481 9.90095 18.7512 10.1396 18.7512 10.3716H18.0005C18.0005 10.1103 18.0055 9.86828 17.9992 9.62762C17.9923 9.34763 17.8521 9.2023 17.5891 9.1923C17.4827 9.1883 17.3762 9.1923 17.251 9.1923C17.251 8.57364 17.2391 7.98366 17.256 7.39367C17.2641 7.10367 17.1665 6.91568 16.9523 6.74168C15.4741 5.54037 14.0033 4.3284 12.53 3.11909C12.2771 2.91109 12.3021 2.68643 12.5926 2.5531C13.2807 2.23844 13.9682 1.92245 14.6576 1.61178C14.8498 1.52512 15.0113 1.41512 14.9963 1.16313C14.9807 0.911799 14.8072 0.824467 14.6062 0.764469C13.8036 0.523807 13.0021 0.276478 12.1994 0.03515C11.8244 -0.0775144 11.6271 0.0818157 11.6259 0.496474C11.624 1.22179 11.6159 1.94711 11.6309 2.67176C11.6353 2.90376 11.572 3.04776 11.3967 3.18975C9.9366 4.37506 8.4865 5.57504 7.027 6.76168C6.82664 6.92501 6.73898 7.10367 6.74587 7.37367C6.7609 7.97099 6.75025 8.56898 6.75025 9.19096C6.65195 9.19096 6.57619 9.19096 6.50043 9.19096C6.11849 9.19363 6.00141 9.3203 6.00016 9.73229C5.99953 9.94628 6.00016 10.1603 6.00016 10.3729H5.25006C5.25006 10.1223 5.25319 9.88962 5.24943 9.65696C5.24442 9.34363 5.10981 9.19496 4.81991 9.1923C4.35908 9.18763 3.89825 9.1883 3.43743 9.1923C3.14377 9.19496 3.00665 9.34029 3.00164 9.65029C2.99789 9.88962 3.00102 10.1289 3.00102 10.3763H2.27534C2.26407 10.3536 2.25718 10.3469 2.25718 10.3396C2.25468 10.1149 2.25405 9.88962 2.25029 9.66495C2.24466 9.33896 2.11067 9.19496 1.80387 9.1923C1.38186 9.18896 0.960476 9.19097 0.538468 9.19163C0.107694 9.19163 0 9.30696 0 9.76762C0 14.3182 0 18.8688 0 23.4193C0 23.8793 0.10832 23.9953 0.538468 23.9953C8.17782 23.9953 15.8172 23.9947 23.4565 24C23.6851 24 23.8673 23.948 24 23.7453V9.44096C23.8679 9.23763 23.6863 9.17763 23.4565 9.1863ZM12.3848 0.923132C12.7485 1.03446 13.0967 1.14046 13.503 1.26513C13.1029 1.44912 12.7523 1.60978 12.3848 1.77911V0.923132ZM8.44017 6.61702C9.57909 5.68237 10.7186 4.74972 11.8551 3.81174C11.9565 3.72841 12.021 3.70574 12.1343 3.79974C13.3064 4.76972 14.4842 5.73237 15.6594 6.69768C15.6769 6.71235 15.6901 6.73301 15.732 6.78035H8.26047C8.33999 6.70768 8.3882 6.65968 8.44017 6.61702ZM7.48407 13.9935C7.36761 13.9935 7.25303 13.9882 7.13908 13.9949C6.9024 14.0075 6.76653 14.1529 6.75213 14.4035C6.74775 14.4782 6.75088 14.5535 6.75088 14.6282C6.75088 17.3781 6.75088 20.1287 6.75088 22.8787V23.1833H0.767003V10.0029H1.5002C1.5002 10.2536 1.49706 10.4929 1.50082 10.7323C1.50583 11.0416 1.64358 11.1876 1.9366 11.1903C2.39743 11.1943 2.85826 11.1943 3.31909 11.1903C3.60836 11.1876 3.74423 11.0376 3.74861 10.7249C3.75237 10.4923 3.74924 10.2596 3.74924 10.0096H4.49933C4.49933 10.2483 4.4962 10.4869 4.49996 10.7263C4.50434 11.0389 4.63959 11.1883 4.93011 11.1909C5.39094 11.1956 5.85176 11.1949 6.31259 11.1909C6.60562 11.1883 6.74274 11.0416 6.74838 10.7323C6.75276 10.4989 6.749 10.2656 6.749 10.0123H7.48282V13.9935H7.48407ZM7.50035 8.38698V7.605H16.4809V9.1923C16.3901 9.1923 16.2924 9.19096 16.1941 9.1923C15.8879 9.1983 15.7514 9.3403 15.7508 9.66762C15.7483 10.7756 15.7502 11.8842 15.7502 12.9922C15.7502 13.3155 15.7502 13.6395 15.7502 13.9742C15.7026 13.9849 15.6876 13.9922 15.6725 13.9909C15.0464 13.9442 14.9706 14.1562 14.9988 14.7502C15.0057 14.8895 15.0001 15.0288 15.0001 15.1808H13.4999C13.4999 14.9448 13.5024 14.7069 13.4999 14.4695C13.4955 14.1422 13.3615 13.9955 13.056 13.9942C12.3534 13.9915 11.6503 13.9915 10.9478 13.9942C10.6397 13.9955 10.5058 14.1402 10.5014 14.4662C10.4982 14.6982 10.5014 14.9302 10.5014 15.1782H9.00117C9.00117 14.9582 9.0018 14.7435 9.00117 14.5295C8.99992 14.1229 8.88033 13.9969 8.49526 13.9942C8.42514 13.9942 8.35564 13.9942 8.25108 13.9942V13.7209C8.25108 12.4209 8.25108 11.1216 8.25108 9.82162C8.25108 9.2903 8.16718 9.19963 7.66878 9.1923C7.62307 9.1923 7.57674 9.1883 7.50098 9.1843V8.38765L7.50035 8.38698ZM13.4911 23.1833H10.5007C10.5007 23.0834 10.5007 22.9794 10.5007 22.8754C10.5007 22.326 10.4976 21.7774 10.5014 21.2281C10.5064 20.5134 10.9841 20.0034 11.6516 19.9947C11.9008 19.9914 12.1506 19.9887 12.3998 19.9961C12.9564 20.0121 13.4479 20.4447 13.4817 21.0334C13.5224 21.7434 13.4911 22.458 13.4911 23.1827V23.1833ZM16.4846 23.1807H14.2506C14.2506 23.108 14.2506 23.0294 14.2506 22.9507C14.2506 22.3754 14.2544 21.8007 14.2494 21.2254C14.24 20.0694 13.431 19.2001 12.3503 19.1974C11.8926 19.1961 11.4293 19.1381 10.9822 19.3181C10.2547 19.6108 9.76567 20.3247 9.75315 21.1534C9.74438 21.7447 9.75064 22.3367 9.75064 22.9287C9.75064 23.0094 9.75064 23.0907 9.75064 23.1833H7.51726V14.8055H8.25045C8.25045 15.0482 8.24857 15.2795 8.25045 15.5108C8.25421 15.8415 8.38632 15.9908 8.68811 15.9922C9.39876 15.9955 10.1094 15.9962 10.8207 15.9922C11.1093 15.9908 11.2446 15.8388 11.249 15.5255C11.2527 15.2928 11.2496 15.0608 11.2496 14.8109H12.7498C12.7498 15.0508 12.7467 15.2902 12.7504 15.5288C12.7554 15.8408 12.8907 15.9908 13.1812 15.9922C13.8918 15.9962 14.6025 15.9955 15.3138 15.9922C15.6062 15.9908 15.742 15.8422 15.7489 15.5322C15.7514 15.4155 15.7489 15.2988 15.7489 15.1822C15.7489 15.0655 15.7489 14.9495 15.7489 14.8129H16.4834V23.1807H16.4846ZM23.2336 23.1833H17.2504V14.6789C17.2504 14.0695 17.189 14.0022 16.628 13.9915C16.5967 13.9915 16.566 13.9875 16.5178 13.9842V10.0069H17.2504C17.2504 10.2516 17.2472 10.4909 17.251 10.7303C17.256 11.0403 17.3925 11.1876 17.6855 11.1896C18.1464 11.1936 18.6072 11.1936 19.068 11.1896C19.3585 11.1869 19.4944 11.0376 19.4994 10.7256C19.5032 10.4929 19.5 10.2603 19.5 10.0089H20.2501C20.2501 10.2456 20.2476 10.4843 20.2508 10.7229C20.2551 11.0363 20.3904 11.1863 20.679 11.1889C21.1399 11.1936 21.6007 11.1929 22.0615 11.1889C22.3633 11.1863 22.4954 11.0376 22.4992 10.7069C22.5017 10.4756 22.4992 10.2443 22.4992 10.0023H23.2324V23.182L23.2336 23.1833Z" fill="#464547"/>
<path d="M3.89735 13.9971C2.94376 13.9198 2.05779 14.6104 1.92506 15.6191C1.84429 16.2324 1.88373 16.8637 1.87622 17.487C1.87184 17.857 2.00645 17.9917 2.36084 17.9924C2.82918 17.9937 3.2969 17.9924 3.76524 17.9924C4.24109 17.9924 4.71695 17.9957 5.19343 17.991C5.48333 17.9884 5.6217 17.839 5.62358 17.5277C5.62671 16.995 5.6336 16.4617 5.62107 15.9291C5.59728 14.9131 4.84155 14.0724 3.89798 13.9964L3.89735 13.9971ZM4.87285 17.173H2.63133C2.63133 16.7251 2.6044 16.2837 2.63759 15.8477C2.68517 15.2264 3.21487 14.7684 3.80155 14.7931C4.37383 14.8171 4.85031 15.3157 4.87035 15.9324C4.88412 16.3391 4.87285 16.7464 4.87285 17.173Z" fill="#464547"/>
<path d="M20.4127 13.9988C19.4547 13.9101 18.5581 14.6075 18.4248 15.6294C18.3434 16.2508 18.3841 16.8907 18.3778 17.5227C18.3747 17.8467 18.5168 17.9907 18.8242 17.9927C19.3001 17.996 19.7759 17.9934 20.2524 17.9934C20.7364 17.9934 21.2198 17.9967 21.7038 17.9921C21.9805 17.9894 22.122 17.8387 22.1245 17.5441C22.1289 17.0114 22.1333 16.4781 22.1226 15.9454C22.102 14.9261 21.3594 14.0861 20.4127 13.9988V13.9988ZM21.3732 17.1827H19.1072C19.1291 16.6714 19.1022 16.1534 19.1861 15.6561C19.2807 15.0941 19.8373 14.7361 20.3726 14.7981C20.9086 14.8601 21.3456 15.3334 21.37 15.9081C21.3876 16.3228 21.3732 16.7387 21.3732 17.1821V17.1827Z" fill="#464547"/>
<path d="M10.1278 11.9131C10.1241 12.2491 10.2662 12.3898 10.5906 12.3911C11.0589 12.3931 11.5272 12.3911 11.9949 12.3911C12.4708 12.3911 12.9473 12.3931 13.4231 12.3904C13.7324 12.3884 13.8727 12.2458 13.8746 11.9238C13.8777 11.3911 13.884 10.8578 13.8721 10.3251C13.8483 9.3105 13.09 8.46852 12.1465 8.39518C11.1904 8.32052 10.3082 9.0085 10.1754 10.0192C10.094 10.6405 10.1335 11.2805 10.1272 11.9124L10.1278 11.9131ZM10.9418 10.0332C11.0414 9.47516 11.6149 9.12384 12.144 9.19917C12.6812 9.27583 13.1032 9.75316 13.122 10.3298C13.1351 10.7365 13.1245 11.1438 13.1245 11.5805H10.8554C10.8798 11.0638 10.8523 10.5371 10.9418 10.0332V10.0332Z" fill="#464547"/>
</svg>
