<svg width="51" height="40" viewBox="0 0 51 40" fill="none" xmlns="http://www.w3.org/2000/svg">
<path d="M48.6228 38.8386C49.0901 38.8386 49.5106 38.8344 49.9312 38.8386C50.4876 38.8457 50.7779 39.051 50.751 39.439C50.717 39.9374 50.3658 40.0054 49.9566 39.9997C49.3025 39.9898 48.6497 39.9969 47.9956 39.9969C32.3949 39.9969 16.7943 39.9969 1.19365 39.9969C1.01666 39.9969 0.839665 39.994 0.66409 39.9969C0.267632 40.0039 -0.00280982 39.8369 2.20297e-05 39.4192C0.00285388 38.9972 0.29595 38.8457 0.676834 38.84C1.14834 38.833 1.61984 38.8386 2.14515 38.8386C2.14515 38.5427 2.14515 38.3176 2.14515 38.0924C2.14515 27.027 2.14515 15.9616 2.14515 4.89611C2.14515 3.97576 2.25134 3.87239 3.18585 3.87098C3.48319 3.87098 3.77912 3.87098 4.14443 3.87098C4.14443 2.88833 4.14443 1.95523 4.14443 1.02214C4.14302 0.0649751 4.20673 0.0012586 5.17098 0.0012586C9.87043 0.0012586 14.5699 0.0012586 19.2693 0.0012586C20.15 0.0012586 20.2619 0.117364 20.2633 1.02072C20.2633 1.94107 20.2633 2.86001 20.2633 3.87098C20.6824 3.87098 21.0803 3.86531 21.4768 3.87239C22.0474 3.88372 22.2442 4.06779 22.2442 4.64407C22.2498 7.83132 22.247 11.0171 22.2484 14.2044C22.2484 14.6023 22.1281 14.9407 21.6806 14.9478C21.1964 14.9548 21.086 14.6008 21.086 14.1817C21.0888 11.3669 21.086 8.55202 21.086 5.73717C21.086 5.52761 21.086 5.31947 21.086 5.07168H3.34019V38.8075H17.9426V36.5109C17.7132 36.5109 17.5051 36.5109 17.2984 36.5109C13.6056 36.5109 9.9129 36.5109 6.22018 36.5109C5.35363 36.5109 5.23328 36.3905 5.23328 35.5367C5.23328 26.472 5.23328 17.4072 5.23328 8.34247C5.23328 7.51981 5.37628 7.37114 6.17203 7.37114C10.1819 7.37114 14.1932 7.37114 18.2031 7.37114C18.9946 7.37114 19.1348 7.50849 19.1348 8.29008C19.1348 10.9464 19.1348 13.6012 19.1348 16.2575C19.1348 16.45 19.1348 16.6412 19.1348 16.8734H28.4686C28.4785 16.6709 28.4955 16.4656 28.4955 16.2617C28.4969 12.5435 28.4955 8.8253 28.4955 5.1085C28.4955 3.91629 28.5394 3.87239 29.7047 3.87098C29.9341 3.87098 30.162 3.87098 30.4849 3.87098C30.4849 3.32868 30.4849 2.8062 30.4849 2.28373C30.4849 1.80515 30.482 1.32798 30.4849 0.849397C30.4919 0.16409 30.6491 0.0012586 31.3273 0.0012586C34.9181 0.0012586 38.5047 0.0012586 42.0912 0.0012586C43.3273 0.0012586 44.5648 -0.00157325 45.8009 0.0012586C46.4678 0.00409045 46.6037 0.141435 46.608 0.819663C46.6136 1.80798 46.6094 2.79629 46.6094 3.86956C46.9959 3.86956 47.34 3.86956 47.6855 3.86956C48.4572 3.87239 48.6016 4.01823 48.6016 4.8069C48.6016 13.8716 48.6016 22.9364 48.6016 32.0011C48.6016 34.1434 48.6016 36.2857 48.6016 38.428C48.6016 38.5328 48.6115 38.6362 48.62 38.8358L48.6228 38.8386ZM35.4363 19.6684C35.4236 19.8171 35.4066 19.9361 35.4038 20.0564C35.3755 21.1537 35.3457 21.1821 34.2484 21.1821C29.4258 21.1821 24.6017 21.1821 19.7791 21.1821H19.1688V38.7933H21.6806C21.6806 38.5569 21.6806 38.3643 21.6806 38.1717C21.6806 35.7647 21.6806 33.3562 21.6806 30.9491C21.6806 30.2312 21.8406 30.0684 22.5472 30.067C24.4205 30.0627 26.2923 30.0642 28.1656 30.067C28.9104 30.067 29.0619 30.2227 29.0619 30.9718C29.0633 33.3972 29.0619 35.8227 29.0619 38.2482C29.0619 38.4351 29.0619 38.6206 29.0619 38.7976H31.6049V38.1307C31.6049 33.4921 31.6049 28.8535 31.6049 24.215C31.6049 24.055 31.6049 23.8964 31.6091 23.7364C31.619 23.3796 31.8003 23.1629 32.1571 23.1502C32.5153 23.1375 32.705 23.3569 32.7574 23.6967C32.7829 23.8667 32.7843 24.0408 32.7971 24.2235H37.9496V19.6684H35.4349H35.4363ZM31.6077 16.8862C31.6077 16.6667 31.6077 16.4769 31.6077 16.2872C31.6077 13.6324 31.6077 10.9775 31.6077 8.32264C31.6077 7.50565 31.7408 7.37397 32.5634 7.37397C36.5549 7.37397 40.5478 7.37397 44.5393 7.37397C45.3705 7.37397 45.5121 7.51981 45.5121 8.36937C45.5121 17.4143 45.5121 26.4592 45.5121 35.5027C45.5121 36.4004 45.4016 36.5137 44.5082 36.5137C40.8169 36.5137 37.1255 36.5137 33.4328 36.5137H32.8056V38.8089H47.408V5.07027H29.6919V16.8862H31.6077ZM22.8799 31.2691V38.7976H27.8739V31.2691H22.8799ZM5.33098 3.83841H19.0697V1.19771H5.33098V3.83841ZM45.4115 3.84832V1.20763H31.687V3.84832H45.4115ZM34.1988 19.9955V18.1208H16.5437V19.9955H34.2002H34.1988ZM6.43964 13.8575V18.4309H11.561V13.8575H6.43964ZM44.3099 18.4536V13.8731H39.1829V18.4536H44.3099ZM6.43256 25.4412V30.0273H11.5667V25.4412H6.43256ZM12.7943 30.0302H17.9355V25.4638H12.7943V30.0302ZM37.9355 30.0387V25.4511H32.8056V30.0387H37.9355ZM44.3184 30.0358V25.4511H39.173V30.0358H44.3184ZM11.5752 24.239V19.667H6.43256V24.239H11.5752ZM39.18 19.6656V24.2192H44.3199V19.6656H39.18ZM11.5582 12.6511V8.56193H6.42973V12.6511H11.5568H11.5582ZM17.9355 12.6426V8.57468H12.7957V12.6426H17.9355ZM37.9652 8.56901H32.8126V12.6299H37.9652V8.56901ZM44.334 8.56901H39.1843V12.6313H44.334V8.56901ZM11.5823 31.2677H6.43398V35.313H11.5837V31.2677H11.5823ZM39.1616 35.313H44.3099V31.2691H39.1616V35.313ZM17.944 31.2549H12.7971V35.3215H17.944V31.2549ZM32.7928 35.3102H37.9397V31.2705H32.7928V35.3102ZM12.8056 13.8561V18.4338H15.3387C15.3387 18.1987 15.3373 18.0076 15.3387 17.815C15.3458 17.0674 15.4945 16.9173 16.2378 16.9145C16.7971 16.9131 17.3564 16.9145 17.9369 16.9145V13.8547H12.8042L12.8056 13.8561ZM37.9411 18.4522V13.8731H32.7999V16.9145C33.4229 16.9145 34.0176 16.9102 34.6123 16.9145C35.2183 16.9201 35.3854 17.09 35.401 17.7088C35.4066 17.9481 35.401 18.1874 35.401 18.4493H37.9411V18.4522ZM12.7858 24.2235H17.9256V21.1806C17.263 21.1806 16.6485 21.1778 16.0325 21.1806C15.5695 21.1835 15.3543 20.9414 15.3416 20.4968C15.3331 20.2235 15.3401 19.9488 15.3401 19.6798H12.7858V24.2221V24.2235Z" fill="black"/>
</svg>
