<svg width="33" height="26" viewBox="0 0 33 26" fill="none" xmlns="http://www.w3.org/2000/svg">
<path d="M31.6048 25.2451C31.9086 25.2451 32.1819 25.2424 32.4553 25.2451C32.817 25.2497 33.0056 25.3832 32.9881 25.6353C32.966 25.9593 32.7378 26.0035 32.4718 25.9998C32.0466 25.9934 31.6223 25.998 31.1971 25.998C21.0567 25.998 10.9163 25.998 0.77587 25.998C0.660826 25.998 0.545782 25.9961 0.431659 25.998C0.173961 26.0026 -0.00182638 25.894 1.43193e-05 25.6225C0.00185502 25.3482 0.192368 25.2497 0.439942 25.246C0.746419 25.2414 1.0529 25.2451 1.39435 25.2451C1.39435 25.0528 1.39435 24.9064 1.39435 24.7601C1.39435 17.5675 1.39435 10.375 1.39435 3.18247C1.39435 2.58424 1.46337 2.51706 2.0708 2.51614C2.26408 2.51614 2.45643 2.51614 2.69388 2.51614C2.69388 1.87741 2.69388 1.2709 2.69388 0.664391C2.69296 0.0422338 2.73438 0.000818089 3.36113 0.000818089C6.41578 0.000818089 9.47042 0.000818089 12.5251 0.000818089C13.0975 0.000818089 13.1702 0.0762868 13.1712 0.66347C13.1712 1.2617 13.1712 1.85901 13.1712 2.51614C13.4436 2.51614 13.7022 2.51245 13.9599 2.51706C14.3308 2.52442 14.4587 2.64406 14.4587 3.01865C14.4624 5.09036 14.4606 7.16114 14.4615 9.23285C14.4615 9.49147 14.3833 9.71144 14.0924 9.71604C13.7777 9.72064 13.7059 9.49055 13.7059 9.21813C13.7077 7.38847 13.7059 5.55881 13.7059 3.72916C13.7059 3.59295 13.7059 3.45765 13.7059 3.29659H2.17112V25.2249H11.6627V23.7321C11.5136 23.7321 11.3783 23.7321 11.2439 23.7321C8.84366 23.7321 6.44339 23.7321 4.04311 23.7321C3.47986 23.7321 3.40163 23.6538 3.40163 23.0989C3.40163 17.2068 3.40163 11.3147 3.40163 5.4226C3.40163 4.88788 3.49458 4.79124 4.01182 4.79124C6.61825 4.79124 9.22561 4.79124 11.832 4.79124C12.3465 4.79124 12.4376 4.88052 12.4376 5.38855C12.4376 7.11513 12.4376 8.84078 12.4376 10.5674C12.4376 10.6925 12.4376 10.8168 12.4376 10.9677H18.5046C18.511 10.8361 18.5221 10.7027 18.5221 10.5701C18.523 8.15328 18.5221 5.73644 18.5221 3.32052C18.5221 2.54559 18.5506 2.51706 19.308 2.51614C19.4571 2.51614 19.6053 2.51614 19.8152 2.51614C19.8152 2.16364 19.8152 1.82403 19.8152 1.48442C19.8152 1.17334 19.8133 0.863186 19.8152 0.552108C19.8198 0.106658 19.9219 0.000818089 20.3628 0.000818089C22.6968 0.000818089 25.028 0.000818089 27.3593 0.000818089C28.1627 0.000818089 28.9671 -0.00102261 29.7706 0.000818089C30.2041 0.00265879 30.2924 0.0919328 30.2952 0.532781C30.2989 1.17519 30.2961 1.81759 30.2961 2.51522C30.5474 2.51522 30.771 2.51522 30.9956 2.51522C31.4972 2.51706 31.591 2.61185 31.591 3.12449C31.591 9.01657 31.591 14.9087 31.591 20.8007C31.591 22.1932 31.591 23.5857 31.591 24.9782C31.591 25.0463 31.5975 25.1135 31.603 25.2433L31.6048 25.2451ZM23.0336 12.7845C23.0253 12.8811 23.0143 12.9584 23.0125 13.0367C22.9941 13.7499 22.9747 13.7683 22.2615 13.7683C19.1267 13.7683 15.9911 13.7683 12.8564 13.7683H12.4597V25.2157H14.0924C14.0924 25.062 14.0924 24.9368 14.0924 24.8116C14.0924 23.247 14.0924 21.6815 14.0924 20.1169C14.0924 19.6503 14.1964 19.5445 14.6557 19.5435C15.8733 19.5408 17.09 19.5417 18.3076 19.5435C18.7917 19.5435 18.8902 19.6448 18.8902 20.1316C18.8911 21.7082 18.8902 23.2848 18.8902 24.8613C18.8902 24.9828 18.8902 25.1034 18.8902 25.2184H20.5432V24.7849C20.5432 21.7699 20.5432 18.7548 20.5432 15.7397C20.5432 15.6357 20.5432 15.5327 20.5459 15.4287C20.5524 15.1967 20.6702 15.0559 20.9021 15.0476C21.1349 15.0393 21.2583 15.182 21.2923 15.4029C21.3089 15.5133 21.3098 15.6265 21.3181 15.7453H24.6672V12.7845H23.0336ZM20.545 10.976C20.545 10.8333 20.545 10.71 20.545 10.5867C20.545 8.86103 20.545 7.13538 20.545 5.40972C20.545 4.87868 20.6315 4.79308 21.1662 4.79308C23.7607 4.79308 26.3561 4.79308 28.9506 4.79308C29.4908 4.79308 29.5828 4.88788 29.5828 5.44009C29.5828 11.3193 29.5828 17.1985 29.5828 23.0768C29.5828 23.6603 29.5111 23.7339 28.9303 23.7339C26.531 23.7339 24.1316 23.7339 21.7313 23.7339H21.3236V25.2258H30.8152V3.29567H19.2998V10.976H20.545ZM14.872 20.3249V25.2184H18.118V20.3249H14.872ZM3.46513 2.49497H12.3953V0.778514H3.46513V2.49497ZM29.5175 2.50141V0.784957H20.5965V2.50141H29.5175ZM22.2292 12.9971V11.7785H10.7534V12.9971H22.2292ZM4.18577 9.00737V11.9801H7.51468V9.00737H4.18577ZM28.8015 11.9948V9.01749H25.4689V11.9948H28.8015ZM4.18117 16.5368V19.5178H7.51836V16.5368H4.18117ZM8.3163 19.5196H11.6581V16.5515H8.3163V19.5196ZM24.658 19.5251V16.5432H21.3236V19.5251H24.658ZM28.807 19.5233V16.5432H25.4624V19.5233H28.807ZM7.52388 15.7554V12.7836H4.18117V15.7554H7.52388ZM25.467 12.7826V15.7425H28.8079V12.7826H25.467ZM7.51284 8.22323V5.56526H4.17933V8.22323H7.51284ZM11.6581 8.21771V5.57354H8.31722V8.21771H11.6581ZM24.6774 5.56986H21.3282V8.20942H24.6774V5.56986ZM28.8171 5.56986H25.4698V8.21034H28.8171V5.56986ZM7.52848 20.324H4.18209V22.9534H7.5294L7.52848 20.324ZM25.4551 22.9534H28.8015V20.3249H25.4551V22.9534ZM11.6636 20.3157H8.31814V22.959H11.6636V20.3157ZM21.3153 22.9516H24.6608V20.3258H21.3153V22.9516ZM8.32366 9.00645V11.9819H9.97017C9.97017 11.8292 9.96925 11.7049 9.97017 11.5797C9.97477 11.0938 10.0714 10.9962 10.5546 10.9944C10.9181 10.9935 11.2817 10.9944 11.659 10.9944V9.00553H8.32274L8.32366 9.00645ZM24.6617 11.9939V9.01749H21.3199V10.9944C21.7249 10.9944 22.1114 10.9916 22.498 10.9944C22.8919 10.9981 23.0005 11.1085 23.0106 11.5107C23.0143 11.6663 23.0106 11.8218 23.0106 11.9921H24.6617V11.9939ZM8.31078 15.7453H11.6517V13.7674C11.2209 13.7674 10.8215 13.7656 10.4211 13.7674C10.1202 13.7693 9.98029 13.6119 9.97201 13.3229C9.96649 13.1453 9.97109 12.9667 9.97109 12.7918H8.31078V15.7453Z" fill="black"/>
</svg>
