<svg width="41" height="40" viewBox="0 0 41 40" fill="none" xmlns="http://www.w3.org/2000/svg">
<path d="M40.6101 26.8929C40.2565 27.3866 39.9117 27.8863 39.5461 28.3711C39.1994 28.8321 38.7722 28.8937 38.3073 28.551C37.7976 28.1754 37.3019 27.779 36.7555 27.3578V38.7967C37.2145 38.7967 37.6854 38.7927 38.1563 38.7987C38.3132 38.8006 38.4772 38.8046 38.6242 38.8503C38.9123 38.9397 39.0941 39.1762 39.0047 39.4534C38.9391 39.655 38.7235 39.8299 38.5358 39.961C38.4364 40.0306 38.2536 39.9859 38.1086 39.9859C25.8799 39.9859 13.6512 39.9809 1.42354 39.9988C0.570148 39.9998 0.0773849 39.4832 0.143948 38.7241C0.182693 38.2781 0.126065 37.8241 0.160837 37.377C0.180706 37.1127 0.293962 36.8544 0.363506 36.5931C0.39331 36.4819 0.443977 36.3706 0.442984 36.2593C0.431062 35.2519 0.866203 34.5148 1.74443 34.023C1.86564 33.9555 1.97591 33.8114 2.0236 33.6793C2.3286 32.8229 2.87302 32.1722 3.63899 31.6874C3.75622 31.6129 3.87643 31.434 3.87643 31.3029C3.88835 25.0102 3.88637 18.7176 3.88537 12.4249C3.88537 12.3871 3.87345 12.3484 3.85656 12.2431C3.38565 12.6067 2.94256 12.9494 2.49848 13.2902C1.79113 13.8336 1.46626 13.7909 0.919851 13.0826C0.70228 12.8004 0.481729 12.5193 0.269125 12.2331C-0.137206 11.6867 -0.0885253 11.2933 0.449938 10.8741C1.6282 9.9561 2.80745 9.04012 3.99565 8.13606C4.20428 7.9781 4.29866 7.81914 4.29667 7.54991C4.28177 6.20176 4.28773 4.85263 4.2927 3.50448C4.2927 3.29386 4.27481 3.14882 4.03141 3.05046C3.67476 2.90641 3.49196 2.59247 3.48302 2.20204C3.47407 1.79272 3.46811 1.38242 3.48302 0.973108C3.4999 0.437625 3.90723 0.0134119 4.44371 0.00943801C6.05611 -0.00347716 7.66952 -0.00248369 9.28193 0.00844453C9.81045 0.0124184 10.2198 0.390932 10.2525 0.918467C10.2814 1.39136 10.2923 1.87518 10.2198 2.33914C10.182 2.57956 9.99325 2.90442 9.7886 2.98986C9.32862 3.1816 9.44783 3.49554 9.45777 3.89194C9.71409 3.69722 9.92073 3.54223 10.1264 3.38328C11.0046 2.70473 11.8799 2.02222 12.7611 1.34566C13.539 0.748583 14.2145 0.748583 14.9954 1.35262C19.0835 4.51286 23.1697 7.67608 27.2559 10.8383C27.8579 11.3042 27.8986 11.6212 27.4436 12.2401C27.1933 12.5809 26.9459 12.9236 26.6866 13.2584C26.329 13.7204 25.9167 13.785 25.4497 13.4402C24.9411 13.0647 24.4463 12.6703 23.8651 12.2222C23.8651 12.5888 23.8701 12.8819 23.8641 13.175C23.8552 13.6449 23.6366 13.9131 23.271 13.9161C22.8975 13.9191 22.6809 13.6578 22.6759 13.1869C22.671 12.6444 22.6869 12.102 22.666 11.5616C22.661 11.4264 22.5905 11.2466 22.4882 11.1671C19.6518 8.95965 16.8065 6.76208 13.9632 4.56352C13.9433 4.54763 13.9165 4.54067 13.8499 4.50988C13.4724 4.80097 13.077 5.10497 12.6836 5.40996C10.2376 7.30253 7.7937 9.19808 5.34479 11.0857C5.16298 11.2258 5.06959 11.3599 5.06959 11.6033C5.07655 18.0152 5.07555 24.4271 5.07555 30.8379V31.1559C5.42029 31.1857 5.73423 31.1946 6.0432 31.2413C7.0625 31.3953 7.87417 31.9039 8.4633 32.7434C8.62027 32.967 8.77625 33.0325 9.02164 32.9719C9.11105 32.9501 9.21536 32.9143 9.29484 32.9411C9.92768 33.1557 10.333 32.814 10.8149 32.4563C13.1048 30.7565 16.3733 32.2149 16.6664 35.0403C16.7042 35.402 16.6714 35.7705 16.6714 36.1818C16.8234 36.1818 16.9645 36.1789 17.1065 36.1818C17.7801 36.1997 18.1825 36.5941 18.2083 37.2707C18.2182 37.521 18.2103 37.7734 18.2113 38.0237C18.2113 38.2612 18.2113 38.4986 18.2113 38.7659H22.7326V38.29C22.7326 35.4606 22.7326 32.6322 22.7326 29.8027C22.7326 28.847 23.0902 28.4904 24.044 28.4894C25.8551 28.4894 27.6662 28.4884 29.4773 28.4894C30.3545 28.4894 30.737 28.8659 30.739 29.7372C30.742 31.3635 30.74 32.9888 30.739 34.6151C30.739 34.7334 30.733 34.8536 30.7141 34.9698C30.6625 35.2897 30.4668 35.4636 30.1449 35.4636C29.824 35.4636 29.6253 35.2917 29.5736 34.9728C29.5508 34.8307 29.5508 34.6837 29.5498 34.5386C29.5478 33.0842 29.5498 31.6297 29.5498 30.1763V29.6964H23.9585V38.7748H29.5518C29.5518 38.435 29.5419 38.1082 29.5538 37.7813C29.5697 37.3472 29.7703 37.1197 30.122 37.1078C30.4906 37.0958 30.7161 37.3323 30.735 37.7784C30.7489 38.0943 30.738 38.4112 30.738 38.7619H35.5116C35.5176 38.6457 35.5295 38.5314 35.5295 38.4162C35.5295 34.5297 35.5335 30.6432 35.5206 26.7558C35.5206 26.5779 35.4192 26.3385 35.2841 26.2322C32.4825 24.0436 29.669 21.8699 26.8585 19.6941C26.8277 19.6703 26.7909 19.6534 26.7283 19.6166C26.623 19.6941 26.5058 19.7756 26.3925 19.863C22.7018 22.7173 19.012 25.5715 15.3222 28.4258C14.6695 28.9315 14.3109 28.8828 13.8012 28.2201C13.5996 27.9579 13.3979 27.6966 13.1972 27.4343C12.6915 26.7756 12.7372 26.4239 13.4058 25.9073C16.0187 23.8846 18.6325 21.8639 21.2444 19.8412C21.7143 19.4776 22.36 19.1934 22.5925 18.7126C22.8319 18.2168 22.666 17.5244 22.675 16.9184C22.6789 16.667 22.669 16.4157 22.6789 16.1653C22.6938 15.7769 22.9084 15.5434 23.2442 15.5325C23.5969 15.5206 23.8453 15.755 23.8592 16.1613C23.8771 16.676 23.8631 17.1916 23.8631 17.7638C23.9824 17.6933 24.0698 17.6525 24.1443 17.5959C24.6579 17.2015 25.1656 16.7992 25.6822 16.4087C26.3766 15.8832 27.08 15.8663 27.7596 16.3908C31.9014 19.5898 36.0392 22.7938 40.174 26.0027C40.3439 26.1348 40.4661 26.3296 40.6101 26.4955V26.8919V26.8929ZM1.64509 36.1808C1.86465 36.1808 2.04744 36.1808 2.23124 36.1808C3.69761 36.1808 5.16397 36.1789 6.63134 36.1818C7.14794 36.1828 7.42214 36.4213 7.39432 36.8246C7.37048 37.1803 7.12609 37.368 6.66213 37.369C5.03681 37.372 3.41148 37.37 1.78715 37.37C1.64707 37.37 1.50699 37.37 1.36195 37.37V38.7748H16.9883V37.37C16.7986 37.37 16.6406 37.37 16.4836 37.37C14.2642 37.37 12.0448 37.371 9.82436 37.369C9.35246 37.369 9.09416 37.1515 9.09515 36.7779C9.09615 36.4093 9.3614 36.1908 9.83032 36.1808C10.1453 36.1749 10.4612 36.1799 10.79 36.1799C10.9679 35.5659 10.8397 35.0483 10.4234 34.6201C9.98332 34.1671 9.43889 34.028 8.82393 34.2018C8.09671 34.4075 8.03213 34.3797 7.68044 33.7121C7.21053 32.8199 6.2101 32.2745 5.25438 32.3897C4.18341 32.5199 3.33201 33.2431 3.10549 34.2704C3.01608 34.6757 2.8303 34.9241 2.42993 35.0523C1.92624 35.2132 1.66694 35.5838 1.64509 36.1799V36.1808ZM1.82391 12.3017C1.96598 12.1954 2.07328 12.1189 2.17759 12.0384C5.85643 9.19212 9.53427 6.34582 13.2121 3.49852C13.8142 3.03258 13.9304 3.0296 14.5215 3.4866C17.1343 5.50733 19.7472 7.52905 22.36 9.54977C23.5383 10.4608 24.7165 11.3718 25.9167 12.2997C26.0776 12.0811 26.2217 11.8844 26.3727 11.6798C26.2942 11.6083 26.2485 11.5616 26.1978 11.5228C22.2269 8.45 18.254 5.38016 14.289 2.2994C13.9572 2.04109 13.7198 2.1007 13.4178 2.33616C10.027 4.97085 6.62836 7.59561 3.23167 10.2243C2.60677 10.7082 1.98287 11.193 1.34903 11.6847C1.51395 11.8983 1.658 12.0851 1.82491 12.3027L1.82391 12.3017ZM14.6815 27.4065C14.8136 27.3091 14.9189 27.2336 15.0222 27.1551C18.7338 24.285 22.4445 21.4148 26.1551 18.5437C26.6558 18.1572 26.8088 18.1562 27.3036 18.5387C30.1151 20.7144 32.9266 22.8901 35.7382 25.0649C36.7396 25.8398 37.742 26.6127 38.7712 27.4085C38.9322 27.1879 39.0762 26.9912 39.2252 26.7866C39.1179 26.6952 39.0405 26.6246 38.957 26.56C35.0169 23.5111 31.0738 20.4641 27.1396 17.4082C26.8287 17.1667 26.6012 17.1926 26.3031 17.425C23.6337 19.5034 20.9543 21.5698 18.2788 23.6392C16.9317 24.6814 15.5845 25.7245 14.2086 26.7885C14.3715 27.0021 14.5195 27.1959 14.6805 27.4055L14.6815 27.4065ZM12.0329 36.1799C13.1406 36.1799 14.1947 36.1848 15.2487 36.1689C15.3252 36.1679 15.4454 36.0199 15.4683 35.9225C15.7127 34.8734 15.1553 33.7429 14.144 33.2064C13.1664 32.6868 11.9574 32.8855 11.1914 33.7071C11.864 34.3678 12.1382 35.1804 12.0329 36.1808V36.1799ZM5.50573 3.18558V6.89819C5.56931 6.87633 5.61004 6.87236 5.63786 6.8515C6.4535 6.22362 7.27014 5.59574 8.08181 4.9629C8.15036 4.91025 8.23878 4.8258 8.24076 4.75527C8.25467 4.23369 8.24772 3.71212 8.24772 3.18657H5.50573V3.18558ZM9.06435 1.22346H4.68909V1.96162H9.06435V1.22346Z" fill="black"/>
<path d="M17.8687 14.7862C17.8687 16.3589 17.8717 17.9326 17.8677 19.5052C17.8657 20.304 17.4743 20.6944 16.6775 20.6954C14.8138 20.6984 12.95 20.6984 11.0852 20.6954C10.2696 20.6944 9.8752 20.302 9.8742 19.4784C9.87122 16.345 9.87023 13.2126 9.8742 10.0792C9.8742 9.2516 10.2587 8.88103 11.0922 8.88103C12.956 8.88004 14.8197 8.87904 16.6845 8.88103C17.4922 8.88103 17.8667 9.25458 17.8677 10.0662C17.8707 11.6389 17.8677 13.2126 17.8687 14.7852V14.7862ZM14.4998 10.0841V12.4685H16.6447V10.0841H14.4998ZM16.6437 19.4844V17.0921H14.4929V19.4844H16.6437ZM11.0852 10.0881V12.4734H13.2461V10.0881H11.0852ZM11.0843 19.4864H13.2391V17.0971H11.0843V19.4864ZM14.4819 15.8493H16.6447V13.7272H14.4819V15.8493ZM13.248 15.8562V13.7183H11.0982V15.8562H13.248Z" fill="black"/>
<path d="M25.4557 33.9636C25.4557 34.1881 25.4687 34.4137 25.4528 34.6362C25.4259 35.0088 25.1805 35.2392 24.8447 35.2303C24.5278 35.2214 24.2884 34.9938 24.2755 34.6402C24.2586 34.1653 24.2576 33.6894 24.2775 33.2155C24.2914 32.8708 24.5517 32.6324 24.8606 32.6304C25.1666 32.6294 25.422 32.8668 25.4498 33.2116C25.4696 33.4609 25.4537 33.7123 25.4537 33.9636H25.4557Z" fill="black"/>
</svg>
