<svg width="27" height="26" viewBox="0 0 27 26" fill="none" xmlns="http://www.w3.org/2000/svg">
<path d="M26.3966 17.4804C26.1667 17.8013 25.9426 18.1261 25.705 18.4412C25.4796 18.7409 25.2019 18.7809 24.8997 18.5581C24.5685 18.314 24.2462 18.0564 23.8911 17.7826V25.2178C24.1894 25.2178 24.4955 25.2152 24.8016 25.2191C24.9036 25.2204 25.0102 25.223 25.1057 25.2527C25.293 25.3108 25.4112 25.4645 25.353 25.6447C25.3104 25.7758 25.1703 25.8894 25.0483 25.9747C24.9837 26.0199 24.8649 25.9908 24.7706 25.9908C16.8219 25.9908 8.8733 25.9876 0.925303 25.9992C0.370596 25.9998 0.0503002 25.6641 0.093566 25.1707C0.118751 24.8807 0.0819424 24.5856 0.104544 24.295C0.117459 24.1233 0.191076 23.9554 0.236279 23.7855C0.255651 23.7132 0.288585 23.6409 0.287939 23.5686C0.28019 22.9138 0.563032 22.4346 1.13388 22.115C1.21267 22.0711 1.28434 21.9774 1.31534 21.8915C1.51359 21.3349 1.86746 20.9119 2.36534 20.5968C2.44154 20.5484 2.51968 20.4321 2.51968 20.3469C2.52743 16.2566 2.52614 12.1664 2.52549 8.07618C2.52549 8.05164 2.51774 8.02645 2.50676 7.958C2.20068 8.19435 1.91267 8.41714 1.62401 8.63863C1.16423 8.99186 0.95307 8.96409 0.597903 8.50367C0.456482 8.32027 0.313124 8.13752 0.174932 7.95155C-0.0891836 7.59638 -0.0575414 7.34066 0.29246 7.06815C1.05833 6.47147 1.82484 5.87608 2.59717 5.28844C2.73278 5.18576 2.79413 5.08244 2.79284 4.90744C2.78315 4.03115 2.78702 3.15421 2.79025 2.27791C2.79025 2.14101 2.77863 2.04673 2.62042 1.9828C2.38859 1.88917 2.26977 1.68511 2.26396 1.43132C2.25815 1.16527 2.25427 0.898573 2.26396 0.63252C2.27494 0.284457 2.5397 0.00871774 2.88841 0.0061347C3.93647 -0.00226015 4.98519 -0.0016144 6.03325 0.00548895C6.37679 0.00807198 6.64285 0.254106 6.66416 0.597004C6.68288 0.904385 6.68999 1.21887 6.64285 1.52044C6.61831 1.67671 6.49561 1.88787 6.36259 1.94341C6.0636 2.06804 6.14109 2.2721 6.14755 2.52976C6.31416 2.40319 6.44847 2.30245 6.58215 2.19913C7.153 1.75808 7.72191 1.31444 8.2947 0.87468C8.80033 0.486579 9.23944 0.486579 9.74701 0.8792C12.4043 2.93336 15.0603 4.98945 17.7163 7.0449C18.1076 7.34776 18.1341 7.55376 17.8384 7.95607C17.6756 8.17756 17.5148 8.40035 17.3463 8.61797C17.1138 8.91825 16.8458 8.96022 16.5423 8.73614C16.2117 8.49204 15.8901 8.23568 15.5123 7.94444C15.5123 8.18273 15.5156 8.37323 15.5117 8.56372C15.5059 8.86917 15.3638 9.04352 15.1262 9.04546C14.8834 9.0474 14.7426 8.87756 14.7394 8.57147C14.7361 8.21889 14.7465 7.86631 14.7329 7.51501C14.7297 7.42719 14.6838 7.31031 14.6173 7.25865C12.7737 5.82377 10.9242 4.39535 9.07606 2.96629C9.06315 2.95596 9.04571 2.95144 9.00245 2.93142C8.75706 3.12063 8.50005 3.31823 8.24433 3.51648C6.65447 4.74665 5.06591 5.97875 3.47411 7.20569C3.35594 7.29675 3.29524 7.38392 3.29524 7.54214C3.29976 11.7099 3.29911 15.8776 3.29911 20.0447V20.2513C3.52319 20.2707 3.72725 20.2765 3.92808 20.3068C4.59063 20.4069 5.11821 20.7376 5.50115 21.2832C5.60318 21.4285 5.70456 21.4711 5.86406 21.4318C5.92218 21.4175 5.98999 21.3943 6.04165 21.4117C6.45299 21.5512 6.71646 21.3291 7.02966 21.0966C8.51813 19.9917 10.6427 20.9397 10.8332 22.7762C10.8577 23.0113 10.8364 23.2509 10.8364 23.5182C10.9352 23.5182 11.0269 23.5163 11.1192 23.5182C11.5571 23.5298 11.8186 23.7862 11.8354 24.2259C11.8418 24.3887 11.8367 24.5527 11.8373 24.7154C11.8373 24.8698 11.8373 25.0241 11.8373 25.1978H14.7762V24.8885C14.7762 23.0494 14.7762 21.2109 14.7762 19.3718C14.7762 18.7506 15.0086 18.5187 15.6286 18.5181C16.8058 18.5181 17.983 18.5174 19.1602 18.5181C19.7304 18.5181 19.979 18.7628 19.9803 19.3292C19.9823 20.3863 19.981 21.4427 19.9803 22.4998C19.9803 22.5767 19.9765 22.6548 19.9642 22.7304C19.9306 22.9383 19.8034 23.0513 19.5942 23.0513C19.3856 23.0513 19.2564 22.9396 19.2229 22.7323C19.208 22.64 19.208 22.5444 19.2074 22.4501C19.2061 21.5047 19.2074 20.5593 19.2074 19.6146V19.3027H15.573V25.2036H19.2087C19.2087 24.9828 19.2022 24.7703 19.21 24.5579C19.2203 24.2757 19.3507 24.1278 19.5793 24.12C19.8189 24.1123 19.9655 24.266 19.9778 24.5559C19.9868 24.7613 19.9797 24.9673 19.9797 25.1952H23.0826C23.0864 25.1197 23.0942 25.0454 23.0942 24.9705C23.0942 22.4443 23.0968 19.9181 23.0884 17.3912C23.0884 17.2757 23.0225 17.12 22.9347 17.0509C21.1136 15.6283 19.2849 14.2154 17.458 12.8012C17.438 12.7857 17.4141 12.7747 17.3734 12.7508C17.305 12.8012 17.2288 12.8541 17.1551 12.911C14.7562 14.7662 12.3578 16.6215 9.95946 18.4768C9.5352 18.8055 9.30208 18.7738 8.97081 18.3431C8.83972 18.1726 8.70863 18.0028 8.57818 17.8323C8.24949 17.4042 8.2792 17.1756 8.71379 16.8398C10.4121 15.525 12.1111 14.2115 13.8088 12.8968C14.1143 12.6604 14.534 12.4757 14.6851 12.1632C14.8407 11.8409 14.7329 11.3909 14.7387 10.9969C14.7413 10.8336 14.7348 10.6702 14.7413 10.5075C14.751 10.255 14.8905 10.1032 15.1087 10.0961C15.338 10.0884 15.4994 10.2408 15.5085 10.5049C15.5201 10.8394 15.511 11.1745 15.511 11.5465C15.5885 11.5006 15.6454 11.4742 15.6938 11.4373C16.0277 11.181 16.3576 10.9195 16.6934 10.6657C17.1448 10.3241 17.602 10.3131 18.0437 10.654C20.7359 12.7334 23.4255 14.816 26.1131 16.9018C26.2235 16.9876 26.303 17.1142 26.3966 17.2221V17.4797V17.4804ZM1.06931 23.5176C1.21202 23.5176 1.33084 23.5176 1.4503 23.5176C2.40344 23.5176 3.35658 23.5163 4.31037 23.5182C4.64616 23.5188 4.82439 23.6738 4.80631 23.936C4.79081 24.1672 4.63196 24.2892 4.33039 24.2899C3.27393 24.2918 2.21747 24.2905 1.16165 24.2905C1.0706 24.2905 0.979546 24.2905 0.885266 24.2905V25.2036H11.0424V24.2905C10.9191 24.2905 10.8164 24.2905 10.7144 24.2905C9.27173 24.2905 7.82911 24.2912 6.38584 24.2899C6.0791 24.2899 5.9112 24.1485 5.91185 23.9057C5.91249 23.6661 6.08491 23.524 6.38971 23.5176C6.59442 23.5137 6.79977 23.5169 7.01351 23.5169C7.1291 23.1178 7.0458 22.7814 6.77523 22.5031C6.48916 22.2086 6.13528 22.1182 5.73556 22.2312C5.26286 22.3649 5.22089 22.3468 4.99229 21.9128C4.68685 21.3329 4.03657 20.9784 3.41535 21.0533C2.71922 21.1379 2.1658 21.608 2.01857 22.2758C1.96045 22.5392 1.8397 22.7007 1.57946 22.784C1.25206 22.8886 1.08351 23.1294 1.06931 23.5169V23.5176ZM1.18554 7.9961C1.27789 7.92701 1.34763 7.87728 1.41543 7.82498C3.80668 5.97488 6.19727 4.12478 8.58787 2.27404C8.9792 1.97118 9.05475 1.96924 9.43898 2.26629C11.1373 3.57976 12.8357 4.89388 14.534 6.20735C15.2999 6.79951 16.0658 7.39167 16.8458 7.99481C16.9504 7.85274 17.0441 7.72488 17.1422 7.59186C17.0912 7.54536 17.0615 7.51501 17.0286 7.48983C14.4475 5.4925 11.8651 3.4971 9.28787 1.49461C9.07219 1.32671 8.91785 1.36546 8.72154 1.5185C6.51757 3.23105 4.30843 4.93715 2.10058 6.64582C1.6944 6.96031 1.28886 7.27544 0.876871 7.59509C0.984067 7.73393 1.0777 7.85533 1.18619 7.99675L1.18554 7.9961ZM9.54295 17.8142C9.62883 17.7509 9.69728 17.7019 9.76444 17.6508C12.177 15.7852 14.5889 13.9196 17.0008 12.0534C17.3263 11.8022 17.4257 11.8016 17.7473 12.0502C19.5748 13.4644 21.4023 14.8786 23.2298 16.2922C23.8807 16.7959 24.5323 17.2983 25.2013 17.8155C25.3059 17.6721 25.3995 17.5443 25.4964 17.4113C25.4267 17.3519 25.3763 17.306 25.3221 17.264C22.761 15.2822 20.198 13.3017 17.6408 11.3153C17.4386 11.1584 17.2908 11.1752 17.097 11.3263C15.3619 12.6772 13.6203 14.0204 11.8812 15.3655C11.0056 16.0429 10.1299 16.7209 9.23557 17.4126C9.34147 17.5514 9.43769 17.6773 9.5423 17.8136L9.54295 17.8142ZM7.82136 23.5169C8.54138 23.5169 9.22653 23.5201 9.91168 23.5098C9.9614 23.5092 10.0395 23.4129 10.0544 23.3497C10.2132 22.6677 9.85097 21.9329 9.19359 21.5842C8.55817 21.2464 7.77228 21.3756 7.2744 21.9096C7.71158 22.339 7.88981 22.8673 7.82136 23.5176V23.5169ZM3.57872 2.07062V4.48382C3.62005 4.46962 3.64653 4.46703 3.66461 4.45347C4.19478 4.04535 4.72559 3.63723 5.25318 3.22589C5.29773 3.19166 5.3552 3.13677 5.3565 3.09092C5.36554 2.7519 5.36102 2.41288 5.36102 2.07127H3.57872V2.07062ZM5.89183 0.795251H3.04791V1.27505H5.89183V0.795251V0.795251Z" fill="black"/>
<path d="M11.6146 9.61111C11.6146 10.6333 11.6166 11.6562 11.614 12.6785C11.6127 13.1976 11.3583 13.4514 10.8404 13.4521C9.62892 13.454 8.41748 13.454 7.20539 13.4521C6.67522 13.4514 6.41885 13.1964 6.41821 12.661C6.41627 10.6243 6.41562 8.58822 6.41821 6.5515C6.41821 6.01359 6.66812 5.77272 7.20991 5.77272C8.42135 5.77207 9.63279 5.77143 10.8449 5.77272C11.3699 5.77272 11.6133 6.01552 11.614 6.54311C11.6159 7.56534 11.614 8.58823 11.6146 9.61046V9.61111ZM9.42486 6.55473V8.10455H10.8191V6.55473H9.42486ZM10.8184 12.6649V11.1099H9.42034V12.6649H10.8184ZM7.20539 6.55731V8.10778H8.60991V6.55731H7.20539V6.55731ZM7.20474 12.6662H8.60539V11.1131H7.20474V12.6662ZM9.41324 10.3021H10.8191V8.92273H9.41324V10.3021ZM8.6112 10.3066V8.91692H7.21378V10.3066H8.6112Z" fill="black"/>
<path d="M16.546 22.0766C16.546 22.2225 16.5544 22.3691 16.544 22.5137C16.5266 22.7559 16.3671 22.9057 16.1488 22.8999C15.9428 22.8941 15.7872 22.7462 15.7788 22.5163C15.7678 22.2077 15.7672 21.8983 15.7801 21.5903C15.7892 21.3662 15.9583 21.2113 16.1592 21.21C16.3581 21.2093 16.524 21.3637 16.5421 21.5877C16.555 21.7498 16.5447 21.9132 16.5447 22.0766H16.546V22.0766Z" fill="black"/>
</svg>
