<svg width="70" height="71" viewBox="0 0 70 71" fill="none" xmlns="http://www.w3.org/2000/svg">
<ellipse cx="35.0002" cy="35.1902" rx="32.4074" ry="32.5149" fill="black"/>
<path d="M69.5 35.1888C69.5 54.3083 54.0522 69.8049 35 69.8049C15.9477 69.8049 0.5 54.3083 0.5 35.1888C0.5 16.0693 15.9477 0.572754 35 0.572754C54.0522 0.572754 69.5 16.0693 69.5 35.1888Z" stroke="black"/>
<path d="M45.4431 48.3002H47.2804C49.7592 48.3002 51.7131 47.6133 53.1421 46.2394C54.5711 44.8655 56.0001 42.4761 57.4291 39.0413C57.6332 38.5933 57.8082 38.3842 58.0415 38.3842C58.0998 38.3842 58.1582 38.3842 58.2165 38.3842C58.2748 38.3842 58.304 38.3842 58.3331 38.3842L56.1167 49.4949C54.8627 49.1067 52.3839 48.8976 48.6802 48.8976H32.4072V48.6586C32.4072 48.4496 32.6114 48.3301 33.0488 48.2106C33.4863 48.121 33.982 48.0016 34.507 47.912C35.0611 47.7925 35.5277 47.4341 35.9651 46.8367C36.4026 46.2394 36.6067 45.4031 36.6067 44.298V24.7945C36.6067 23.8985 36.4026 23.2115 35.9651 22.7336C35.5277 22.2557 35.0611 21.9571 34.5361 21.8675C34.0112 21.7779 33.5446 21.6584 33.1071 21.5688C32.6697 21.4493 32.4656 21.3 32.4656 21.1208V20.8818H46.143V21.1208C46.143 21.3298 45.9097 21.4792 45.4723 21.5688C45.0348 21.6883 44.539 21.7779 44.0141 21.8675C43.4892 21.9571 42.9934 22.2557 42.556 22.7635C42.1185 23.2712 41.8852 23.9582 41.8852 24.8244C41.8852 26.6761 41.8852 30.0213 41.8852 34.8598C41.8852 39.6984 41.8852 43.0137 41.8852 44.8953C41.8852 46.0004 42.1768 46.8666 42.7309 47.4341C43.285 48.0314 44.2182 48.3002 45.4723 48.3002H45.4431Z" fill="white"/>
<path fill-rule="evenodd" clip-rule="evenodd" d="M27.2226 47.9855C25.1361 47.7294 23.6356 46.9949 22.7355 45.7676C21.5935 44.2105 21.0078 41.9484 21.0078 38.9517V26.7008C21.0078 25.555 21.1835 24.5855 21.5056 23.7335C21.652 23.1753 21.9449 22.7053 22.3548 22.3821C22.7647 22.0589 23.204 21.8533 23.6432 21.7945C24.0824 21.7358 24.4631 21.6476 24.8145 21.5595C25.1366 21.442 25.3122 21.3245 25.3122 21.1188V20.8838H11.667V21.1188C11.667 21.2951 11.9012 21.442 12.3112 21.5595C12.4149 21.5818 12.5243 21.606 12.6379 21.6311C12.9731 21.7052 13.3449 21.7875 13.7167 21.8533C14.2145 21.9414 14.7123 22.2352 15.1222 22.7053C15.5615 23.1753 15.7664 23.851 15.7664 24.7324V38.6579C15.7664 45.3692 19.5944 48.8047 27.2226 48.9366V47.9855Z" fill="white"/>
</svg>
